<svg xmlns="http://www.w3.org/2000/svg" width="120" height="36.126" viewBox="0 0 120 36.126">
  <g id="amazon-2" transform="translate(-163.5 -263.1)">
    <path id="Tracciato_908" data-name="Tracciato 908" d="M261.185,323.062c-6.947,5.137-17.053,7.874-25.768,7.874a46.722,46.722,0,0,1-31.495-12c-.632-.589-.084-1.389.716-.926a62.556,62.556,0,0,0,55.537,3.411C261.353,320.957,262.322,322.22,261.185,323.062Z" transform="translate(-23.243 -31.71)" fill="#6f6e6e" fill-rule="evenodd"/>
    <path id="Tracciato_909" data-name="Tracciato 909" d="M335.229,318.021c-.884-1.137-5.895-.547-8.126-.253-.674.084-.8-.505-.168-.926,4-2.821,10.526-1.979,11.284-1.053s-.211,7.495-3.958,10.611c-.589.463-1.137.211-.884-.421C334.218,323.874,336.113,319.2,335.229,318.021Z" transform="translate(-94.382 -29.995)" fill="#6f6e6e" fill-rule="evenodd"/>
    <path id="Tracciato_910" data-name="Tracciato 910" d="M232.847,267.058v-2.737a.641.641,0,0,1,.674-.674h12.211a.7.7,0,0,1,.716.674v2.316c0,.379-.337.884-.926,1.726l-6.316,9.01a13.718,13.718,0,0,1,6.947,1.474,1.254,1.254,0,0,1,.632,1.053v2.905c0,.421-.421.884-.884.632a13.929,13.929,0,0,0-12.884.042.661.661,0,0,1-.884-.632v-2.779a3.146,3.146,0,0,1,.463-1.853l7.326-10.484h-6.358A.7.7,0,0,1,232.847,267.058Zm-44.505,16.968h-3.705a.76.76,0,0,1-.674-.632V264.363a.7.7,0,0,1,.716-.674h3.453a.686.686,0,0,1,.674.632v2.484h.084a4.907,4.907,0,0,1,4.884-3.537c2.316,0,3.789,1.137,4.8,3.537a5.277,5.277,0,0,1,5.137-3.537,5.219,5.219,0,0,1,4.295,2.105c1.179,1.6.926,3.916.926,5.979v12.042a.7.7,0,0,1-.716.674h-3.663a.723.723,0,0,1-.674-.674V273.289a25.25,25.25,0,0,0-.084-3.579,1.953,1.953,0,0,0-2.189-1.642,2.479,2.479,0,0,0-2.232,1.558,11.667,11.667,0,0,0-.337,3.663v10.105a.7.7,0,0,1-.716.674h-3.705a.723.723,0,0,1-.674-.674V273.289c0-2.105.337-5.263-2.274-5.263-2.653,0-2.568,3.032-2.568,5.263v10.105a.74.74,0,0,1-.758.632Zm68.632-20.758c5.516,0,8.505,4.716,8.505,10.737,0,5.811-3.284,10.442-8.505,10.442-5.389,0-8.337-4.716-8.337-10.611C248.595,267.9,251.584,263.268,256.974,263.268Zm0,3.916c-2.737,0-2.905,3.747-2.905,6.063s-.042,7.284,2.863,7.284c2.863,0,3.032-4,3.032-6.442a18.425,18.425,0,0,0-.547-5.053A2.328,2.328,0,0,0,256.974,267.184Zm15.621,16.842h-3.705a.723.723,0,0,1-.674-.674V264.279a.728.728,0,0,1,.716-.632h3.453a.72.72,0,0,1,.674.547V267.1h.084c1.053-2.611,2.484-3.832,5.053-3.832a4.9,4.9,0,0,1,4.337,2.232c.968,1.516.968,4.084.968,5.937v12a.693.693,0,0,1-.716.589h-3.705a.766.766,0,0,1-.674-.589V273.079c0-2.105.253-5.137-2.316-5.137a2.437,2.437,0,0,0-2.147,1.516,8.742,8.742,0,0,0-.589,3.621v10.274a.771.771,0,0,1-.758.674Zm-49.474-9.095a7.528,7.528,0,0,1-.674,3.958,2.98,2.98,0,0,1-2.568,1.684c-1.432,0-2.274-1.095-2.274-2.695,0-3.158,2.821-3.747,5.516-3.747Zm3.747,9.053a.761.761,0,0,1-.884.084,9.3,9.3,0,0,1-2.147-2.484,7.376,7.376,0,0,1-6.105,2.695c-3.116,0-5.558-1.937-5.558-5.768a6.3,6.3,0,0,1,3.958-6.063c2.021-.884,4.842-1.053,6.989-1.305v-.463a4.548,4.548,0,0,0-.463-2.695,2.493,2.493,0,0,0-2.063-.968,2.8,2.8,0,0,0-2.989,2.232c-.084.337-.295.674-.632.674l-3.579-.379a.648.648,0,0,1-.547-.758c.842-4.379,4.758-5.684,8.295-5.684a8.333,8.333,0,0,1,5.6,1.853c1.811,1.684,1.642,3.958,1.642,6.4v5.768a5.216,5.216,0,0,0,1.389,3.453c.253.337.295.758,0,.968C228.974,282.174,227.626,283.353,226.868,283.984Zm-52.379-9.053a7.528,7.528,0,0,1-.674,3.958,2.98,2.98,0,0,1-2.568,1.684c-1.432,0-2.274-1.095-2.274-2.695,0-3.158,2.821-3.747,5.516-3.747Zm3.705,9.053a.761.761,0,0,1-.884.084,9.3,9.3,0,0,1-2.147-2.484,7.376,7.376,0,0,1-6.105,2.695c-3.116,0-5.558-1.937-5.558-5.768a6.3,6.3,0,0,1,3.958-6.063c2.021-.884,4.842-1.053,6.989-1.305v-.463a4.548,4.548,0,0,0-.463-2.695,2.493,2.493,0,0,0-2.063-.968,2.8,2.8,0,0,0-2.99,2.232c-.084.337-.295.674-.632.674l-3.579-.379a.648.648,0,0,1-.547-.758c.842-4.379,4.758-5.684,8.295-5.684a8.333,8.333,0,0,1,5.6,1.853c1.811,1.684,1.642,3.958,1.642,6.4v5.768a5.216,5.216,0,0,0,1.389,3.453c.253.337.295.758,0,.968-.8.632-2.147,1.81-2.905,2.442Z" fill="#6f6e6e" fill-rule="evenodd"/>
  </g>
</svg>
