<svg xmlns="http://www.w3.org/2000/svg" width="120" height="18.73" viewBox="0 0 120 18.73">
  <g id="chanel" transform="translate(0)">
    <path id="Tracciato_896" data-name="Tracciato 896" d="M101.939,18.194V14.716H91.906V10.7h8.027V7.224H91.906V4.013h9.231V.4H88.294V18.194ZM107.023.4V18.194H120V14.716h-9.365V.4ZM22.207.4V18.194h3.612V10.7h8.428v7.492h3.479V.4H34.247V7.224H25.819V.4ZM58.194,18.194h3.88L53.913.4H49.23L41.2,18.194H44.95l1.872-4.013h9.5ZM65.552.4V18.194h3.612V5.351L78.8,18.194H81.6V.4H77.993V11.1L69.967.4Zm-51.1,11.773a5.722,5.722,0,0,1-5.084,3.077A5.9,5.9,0,0,1,3.478,9.365,5.821,5.821,0,0,1,9.364,3.612a5.567,5.567,0,0,1,5.084,3.077L17.659,4.95A9.591,9.591,0,0,0,9.364,0,9.361,9.361,0,0,0,0,9.365a9.247,9.247,0,0,0,9.365,9.365,9.366,9.366,0,0,0,8.294-4.816Z" fill="#6f6e6e"/>
    <path id="Tracciato_897" data-name="Tracciato 897" d="M93.3,13.33H86.88l3.211-7.09Z" transform="translate(-38.452 -2.762)" fill="#fff"/>
  </g>
</svg>
