<svg xmlns="http://www.w3.org/2000/svg" width="120" height="16.971" viewBox="0 0 120 16.971">
  <g id="dhl_logo" transform="translate(-0.722 -11.413)">
    <path id="Tracciato_966" data-name="Tracciato 966" d="M11.11,11.413,7.276,16.622H28.171c1.057,0,1.043.4.527,1.1s-1.4,1.942-1.937,2.666c-.271.366-.761,1.033.862,1.033h8.545L38.7,17.982c1.57-2.132.137-6.566-5.478-6.566Z" transform="translate(10.715)" fill="#6f6e6e"/>
    <path id="Tracciato_967" data-name="Tracciato 967" d="M16.439,28.384l7.7-10.466H33.7c1.057,0,1.043.4.527,1.1l-1.95,2.656c-.271.366-.761,1.033.862,1.033h12.8A13.288,13.288,0,0,1,35.22,28.384Zm44.1-5.678-4.176,5.678H45.349l4.176-5.678ZM77.415,21.42H50.474l7.367-10.007H68.852l-4.221,5.739h4.914l4.226-5.739H84.782Zm-.946,1.286-4.176,5.678H61.282l4.176-5.678ZM.722,24.946H16.948l-.885,1.2H.722Zm0-2.24H18.6l-.888,1.2H.722Zm0,4.479H15.3l-.883,1.2H.722Zm120-1.036H104.554l.888-1.2h15.28Zm0,2.234H102.913l.88-1.2h16.929Zm-13.633-5.678h13.633v1.207H106.2Zm-7.056-11.293L92.666,21.42H81l7.372-10.007ZM80.053,22.706s-.8,1.1-1.2,1.628c-1.381,1.871-.161,4.047,4.353,4.047h17.685l4.176-5.676Z" transform="translate(0)" fill="#6f6e6e"/>
  </g>
</svg>
