<svg xmlns="http://www.w3.org/2000/svg" width="120" height="78.706" viewBox="0 0 120 78.706">
  <path id="estee-lauder-companies-logo-1" d="M38.952,36.79a6.206,6.206,0,0,0,1.6-.14c-.128,1.755-.128,3.581-.257,7.793v5.336a25.593,25.593,0,0,0,.513,6.179c1.027,2.6,3.144,5.055,6.866,4.915,3.273-.14,5.519-1.264,6.866-4.213.9-2.036,1.027-3.44,1.155-8.636v-3.3c-.128-2.879-.257-4.774-.385-8.074a6.488,6.488,0,0,0,1.155.14,3.263,3.263,0,0,0,1.155-.14c-.128,1.123-.257,7.372-.257,7.372v3.932c0,5.2-.257,6.319-.77,8.074a7.012,7.012,0,0,1-1.989,3.44c-1.6,2.036-4.235,3.019-7.38,3.019-2.888,0-5.647-.843-7.251-2.457-1.733-1.9-2.374-3.581-2.374-7.513V43.741c0-2.6-.257-5.617-.385-7.091a4.837,4.837,0,0,0,1.733.14Zm-13.476-.983s.9,2.6,1.733,4.634c1.348,2.879,3.4,8.215,4.235,10.391.77,2.036,2.888,6.951,2.888,6.951l1.861,4.353c-.642,0-1.155-.14-1.861-.14a8.318,8.318,0,0,0-1.861.14l-1.348-3.721a15.455,15.455,0,0,0-1.091-2.879,21.639,21.639,0,0,0-1.476-3.581H19.765c-.128.421-.77,2.177-1.219,3.44A51.1,51.1,0,0,0,16.3,62.347a3.477,3.477,0,0,0-1.219-.281,3.815,3.815,0,0,0-1.219.14,33.643,33.643,0,0,1,1.476-3.581c1.027-2.6,2.5-6.038,3.722-8.917.9-2.317,5.519-13.48,5.519-13.761h.9Zm-1.989,6.881c-.513,1.194-3.144,7.653-3.144,7.653h7.765s-1.348-3.37-2.118-5.476c-1.155-2.879-1.733-4.072-1.733-3.862A7.869,7.869,0,0,1,23.487,42.688Zm40.749-5.757h1.733l2.631-.14,2.246-.14h.642c4.492,0,6.481.562,8.727,2.879a12.507,12.507,0,0,1,3.4,8.987,14.188,14.188,0,0,1-4.62,10.672c-2.374,2.177-5.005,2.879-10.973,2.738H63.4a16.6,16.6,0,0,0-1.861.14c.128-.562.257-6.038.257-7.372V48.375c0-1.474,0-5.336-.128-7.513,0-1.264-.128-4.072-.128-4.072a11.762,11.762,0,0,0,2.7.14Zm4.492,23.731a22.26,22.26,0,0,0,3.722-.14,7.48,7.48,0,0,0,4.877-2.738c1.989-2.036,2.888-5.2,2.888-8.847-.128-3.721-.9-7.232-3.273-9.127-1.861-1.4-2.888-1.755-6.61-1.9a34.855,34.855,0,0,0-5.39.421l-.257.14c0,.7-.128,4.353-.128,7.091V56.52c.128,1.755.128,2.738.257,3.932A18.318,18.318,0,0,0,68.727,60.662ZM87.209,36.65c3.144.14,4.492.14,5.968.14h5.775c0,.281-.128.7-.128.983s0,.983.128.983c-.77-.14-1.6-.14-2.759-.281-3.144-.14-3.979-.14-5.005-.14H89.9v4.493a9.374,9.374,0,0,0-.128,2.317c0,1.264.128,2.6.128,2.6h5.647c.9-.07,1.733-.14,2.631-.14-.128,0-.128.421-.128.983,0,.421.128.983,0,.983-1.219-.14-3.85-.281-5.9-.281H89.84v5.336c0,1.4.128,2.457.128,2.6a23.761,23.761,0,0,0,.128,3.019,2.6,2.6,0,0,0,1.027.14,75.785,75.785,0,0,0,8.021-.7,5.993,5.993,0,0,0-.128.983v1.123H89.84a15.733,15.733,0,0,0-3.144.14,27.672,27.672,0,0,0,.385-5.055V53.711l.128-4.634s-.257-11.093-.385-12.568h.385Zm-82.46,23.8H6.481a12.135,12.135,0,0,0,2.759-.14,32.252,32.252,0,0,0,3.529-.281v2.036H12c-.9,0-1.861-.07-2.759-.14H2.888A26.46,26.46,0,0,0,0,62.066C.128,60.8.385,54.273.385,49.5S0,36.65,0,36.65c.513,0,1.219.14,1.733.14s1.733-.14,1.733-.14A106.8,106.8,0,0,0,3.08,47.743s0,9.268.128,12.006l.128.562C3.273,60.451,3.914,60.451,4.749,60.451ZM106.075,49.779v4.493l.128,3.581.128,3.932v.281a14.407,14.407,0,0,0-1.733-.14,6.206,6.206,0,0,0-1.6.14l.128-3.932c.128-2.879.128-5.476.128-9.97,0-2.879,0-4.353-.128-7.653,0-1.264-.128-3.721-.128-3.721a14.964,14.964,0,0,0,2.5.14c.642,0,1.733-.14,2.631-.14,1.6-.14,2.631-.14,2.888-.14,5.519,0,7.123,2.879,7.123,5.757,0,3.44-2.759,6.038-7.38,7.091v.14l2.5,3.3,2.246,3.019,2.5,3.44A25.881,25.881,0,0,0,120,62.137h-3.722L112.3,56.169c-1.027-1.615-4.62-6.319-4.749-6.319Zm1.861-1.264c2.631,0,3.594-.421,4.749-1.194a5.167,5.167,0,0,0,2.374-4.634c-.128-2.738-1.6-4.774-5.519-4.774a14.62,14.62,0,0,0-3.465.421v9.97a5.439,5.439,0,0,0,1.861.211ZM22.588,5.055c-2.952.14-4.62,1.9-4.62,4.634A4.778,4.778,0,0,0,20.6,14.042c.77.281,1.989.983,3.144,1.474,3.85,1.334,5.39,3.3,5.39,6.319a8.123,8.123,0,0,1-8.342,8.215,8.111,8.111,0,0,1-5.775-2.177s.385-2.036.513-2.879c0,0,2.374,4.072,5.775,3.862a5.274,5.274,0,0,0,5.262-5.406V23.24c0-2.6-1.476-4.213-4.877-5.476s-4.877-2.738-5.519-3.932a6.726,6.726,0,0,1-.77-3.159c0-4.072,3.016-6.951,7.38-6.951a7.32,7.32,0,0,1,5.262,1.9,14.848,14.848,0,0,0-.9,2.879c.064,0-1.283-3.44-4.556-3.44ZM40.62,6.179l-.128,4.213-.128,5.055q-.1,2.528,0,5.055c-.064,3.089.064,6.179.257,9.268a16.049,16.049,0,0,0-1.733-.14,12.372,12.372,0,0,0-1.6.14c.128-2.036.257-4.213.257-9.127V10.391s-.128-3.159-.128-4.213l-3.658.14a22.149,22.149,0,0,0-3.722.281,7.541,7.541,0,0,1,.128-1.194,4.508,4.508,0,0,0-.128-.983c.321.14,8.471.14,8.471.14h1.091c2.888,0,8.15-.14,8.15-.14V5.476a7.542,7.542,0,0,0,.128,1.194,40.7,40.7,0,0,0-4.107-.421H40.62ZM.513,4.493c3.144.14,4.364.14,5.9.14.9,0,4.749,0,5.39-.14h.385c0,.281-.128.7-.128.983v.983a16.529,16.529,0,0,1-2.631-.14c-3.08-.14-4.043-.14-4.941-.14H3.144V6.6l-.128,4.072v4.774a.145.145,0,0,0,.128.14H6.289a23.647,23.647,0,0,0,2.5-.14h2.5v1.9c-1.348,0-3.85-.14-6.1-.281a10.742,10.742,0,0,0-2.118.14H3.016v2.457l.128,2.879v2.6c0,.562.128,1.9.128,2.879l.128.14H4.492c2.759,0,6.738-.421,8.021-.562a6,6,0,0,0-.128.983V29.7H9.5l-2.246-.14-4.235.14H0s.257-2.879.257-4.915l.128-3.159V16.991S.257,5.9.128,4.423H.513Zm50.31-2.879H63.08V0H50.824Zm.513,2.879c3.144.14,4.492.14,5.968.14.9,0,4.877,0,5.39-.14h.513a2.782,2.782,0,0,0-.128.983v.983a18.171,18.171,0,0,1-2.759-.14c-3.016-.14-3.979-.14-5.005-.14H54.032v9.408H57.3c.385,0,.9,0,2.5-.14h2.438a3.828,3.828,0,0,1-.128.843,4.509,4.509,0,0,0,.128.983c-1.348,0-3.85-.14-6.1-.281a12.071,12.071,0,0,0-2.246.14v2.528l.128,2.879v2.6c0,.562.128,1.9.128,2.879v.14h1.155c2.631,0,6.738-.421,7.893-.562a6,6,0,0,0-.128.983,3.167,3.167,0,0,0,.128,1.123H60.321l-2.246-.14-4.235.14H50.824s.257-2.879.257-4.915V21.625l.128-4.634S51.08,5.9,50.824,4.423Zm16.107,0c3.144.14,4.492.14,5.9.14.9,0,4.877,0,5.39-.14h.513a2.782,2.782,0,0,0-.128.983v.983a18.171,18.171,0,0,1-2.759-.14c-3.016-.14-3.979-.14-5.005-.14H70.075v9.408h3.273c.385,0,.9,0,2.5-.14h2.5a3.828,3.828,0,0,1-.128.843,4.509,4.509,0,0,0,.128.983c-1.348,0-3.85-.14-6.1-.281a12.071,12.071,0,0,0-2.246.14v2.528l.128,2.879v2.6c0,.562.128,1.9.128,2.879v.14h1.155c2.631,0,6.738-.421,7.893-.562a6,6,0,0,0-.128.983,3.167,3.167,0,0,0,.128,1.123H76.428l-2.246-.14-4.235.14H66.93s.257-2.879.257-4.915V21.625l.128-4.634S67.187,5.9,66.93,4.423ZM8.214,76.811l-.257.983a4.731,4.731,0,0,1-3.016.843C1.925,78.636.064,76.6.064,73.3A6.3,6.3,0,0,1,1.54,69.228a5.179,5.179,0,0,1,3.85-1.264,5.785,5.785,0,0,1,2.888.562,3.56,3.56,0,0,0-.257,1.123H7.893a3.323,3.323,0,0,0-2.7-1.123,3.462,3.462,0,0,0-2.888,1.4,6.388,6.388,0,0,0,.128,6.74A3.055,3.055,0,0,0,5.07,77.934,4.125,4.125,0,0,0,8.086,76.67ZM24.963,73.3c0,3.3-1.989,5.336-5.134,5.336-3.273,0-5.262-2.036-5.262-5.336s1.989-5.336,5.262-5.336C22.973,67.964,24.963,70,24.963,73.3ZM16.749,70a5.95,5.95,0,0,0-.77,3.3,5.718,5.718,0,0,0,.77,3.23,3.454,3.454,0,0,0,3.016,1.755,3.331,3.331,0,0,0,2.888-1.755,5.361,5.361,0,0,0,.77-3.159,6.384,6.384,0,0,0-.77-3.3,3.338,3.338,0,0,0-2.888-1.615A3.564,3.564,0,0,0,16.749,70ZM33.5,67.964l.385.843c.257.421.385.843.642,1.264l.257.7c.9,1.755.642,1.474,1.283,2.6a19.547,19.547,0,0,0,1.348,2.6c.321-.632.706-1.264,1.091-1.9a18.979,18.979,0,0,1,.9-2.036l.257-.7.385-.562.385-.7c.257-.632.578-1.264.9-1.9l.128-.281h.257c.128.281.128.14.128.843.064.7.128,1.474.257,2.177v.562l.128.562V73.16a11.984,11.984,0,0,1,.257,1.615v.562l.128,1.194c.128.843.128,1.264.257,1.9a1.537,1.537,0,0,0-1.283,0,12.392,12.392,0,0,0-.128-2.177c-.128-2.317-.128-2.317-.513-5.617a5.188,5.188,0,0,0-.77,1.474l-.513,1.123a14.559,14.559,0,0,1-.9,1.755c-.9,2.036-1.155,2.457-1.476,3.159h-.128c-.128-.281-.128-.281-.513-1.264a13.826,13.826,0,0,0-1.091-2.317,8.889,8.889,0,0,0-.9-1.755l-.257-.562-.257-.562-.257-.562-.128-.14v-.07a28.143,28.143,0,0,0-.513,4.072c-.128,2.036-.128,2.6-.257,3.581a.718.718,0,0,0-.9,0c.128-.562.128-.983.257-1.755.385-2.6.257-1.9.257-2.317a2.6,2.6,0,0,0,.128-.983l.128-.562c.257-1.755.128-.843.385-2.6.128-1.474.128-1.474.257-2.317ZM51.85,74.072v3.581a1.931,1.931,0,0,1,.128.843,2.109,2.109,0,0,0-.642-.14,2.969,2.969,0,0,0-.77.14,9.422,9.422,0,0,0,.128-1.9c0-.983.128-2.738.128-3.44,0-1.4-.128-2.457-.128-3.44a13.686,13.686,0,0,0-.128-1.615,3.263,3.263,0,0,0,1.155.14,5.8,5.8,0,0,0,1.091-.14h.77c2.118,0,3.144.843,3.144,2.6a3.374,3.374,0,0,1-1.155,2.457,5.306,5.306,0,0,1-2.759.562h-.9v.351Zm0-.913h.642c1.989,0,2.888-.843,2.888-2.457,0-1.264-.77-2.036-2.374-2.036a2.921,2.921,0,0,0-1.091.14,6,6,0,0,0-.128.983Zm14.374-5.2c.128.421,0,0,.385,1.194a16.892,16.892,0,0,0,.642,1.615c1.348,3.3.9,2.317,1.348,3.44l.257.843c.77,1.615.513,1.123.642,1.615a15.081,15.081,0,0,1,.77,1.9,1.073,1.073,0,0,0-.642-.14,1.5,1.5,0,0,0-.77.14,7.459,7.459,0,0,0-.642-2.036,10.929,10.929,0,0,0-.77-2.036h-3.4c-.642,1.755-.642,1.615-1.476,4.072a.446.446,0,0,0-.385-.14,1.127,1.127,0,0,0-.513.14c.257-.7.513-1.264,1.027-2.6.385-.843.642-1.755,1.091-2.6.513-1.264.9-2.177,1.027-2.6a4.952,4.952,0,0,0,.642-1.615,2.468,2.468,0,0,0,.385-.843l.128-.14v-.14Zm-1.989,5.827h3.016c-.128-.211-.257-.491-.385-.7-.642-1.9-.385-1.264-.642-1.755a7.235,7.235,0,0,0-.513-1.264ZM77.07,67.964l.128.14a10.316,10.316,0,0,1,1.155,1.264A10.3,10.3,0,0,0,79.7,70.983l.385.562.513.421.385.562a12.59,12.59,0,0,1,1.476,1.755L83.936,75.9v-.14c.128-.281,0,.14.128-1.264V72.6a33.391,33.391,0,0,0-.128-3.581V68.1a1.127,1.127,0,0,0,.513.14.446.446,0,0,0,.385-.14v1.264a19.562,19.562,0,0,0-.128,2.738,30.827,30.827,0,0,0-.128,3.44v2.177a3.828,3.828,0,0,0,.128.843h-.257a15.694,15.694,0,0,0-1.861-2.317c-.642-.7-1.348-1.755-1.989-2.317-.257-.421.128.14-1.348-1.615l-.9-.983c-.9-1.194-.642-.843-.77-.843l-.128-.14v3.932a26.015,26.015,0,0,0,.128,3.159v.983c-.128-.14-.257-.14-.513-.14a.446.446,0,0,0-.385.14,9.421,9.421,0,0,1,.128-1.9v-3.44l.128-.562V67.964Zm16.492.281a1.073,1.073,0,0,0,.642-.14,8.09,8.09,0,0,1-.128,1.755v6.81c0,.7.128,1.123.128,1.9a2.11,2.11,0,0,0-.642-.14,1.073,1.073,0,0,0-.642.14v-1.9a16.148,16.148,0,0,1,.128-1.755V72.6a19.564,19.564,0,0,0-.128-2.738V68.1a.98.98,0,0,0,.642.14Zm10.781,10.11h-1.476a1.3,1.3,0,0,0-.9.14c0-.7.128-1.474.128-2.879V69.86a5.414,5.414,0,0,0-.128-1.755c.385,0,.513.14,1.027.14h3.016c.513,0,.513-.14.77-.14v.843h-1.027c-.257,0-.642-.14-1.219-.14h-1.283v2.457c-.128.843-.128.562,0,.562-.128.281-.128.281-.128.421s0,.281.128.281a.648.648,0,0,0,.513.14,3.484,3.484,0,0,0,.9-.14h1.861v.843a9.007,9.007,0,0,0-2.374-.14h-1.027a.553.553,0,0,1,.128.281l-.128,1.194a10.386,10.386,0,0,0,.128,1.4v1.474a1.127,1.127,0,0,0,.513.14,8.041,8.041,0,0,0,1.219-.14,6.349,6.349,0,0,0,1.989-.14v.983h-.128v-.14Zm13.219-8.5a1.828,1.828,0,0,0-1.733-1.264,1.662,1.662,0,0,0-1.733,1.545v.211a1.738,1.738,0,0,0,.513,1.474,7.129,7.129,0,0,0,1.6.843,4.83,4.83,0,0,1,1.6.983,2.391,2.391,0,0,1,.642,1.615,3.452,3.452,0,0,1-5.711,2.6,8.824,8.824,0,0,0,.257-1.264h.128a2.568,2.568,0,0,0,2.118,1.474,1.932,1.932,0,0,0,1.989-1.9v-.14a2.959,2.959,0,0,0-.385-1.474,7.129,7.129,0,0,0-1.6-.843c-1.733-.7-2.246-1.4-2.246-2.879a2.952,2.952,0,0,1,.77-2.036,3.368,3.368,0,0,1,2.118-.7,2.906,2.906,0,0,1,2.118.7A1.876,1.876,0,0,0,117.626,70Z" fill="#6f6e6e"/>
</svg>
