<svg xmlns="http://www.w3.org/2000/svg" width="69.366" height="21.32" viewBox="0 0 69.366 21.32">
  <path id="ft" d="M12.6,21.573c0,.846.228.911,1.2.943v.293H10.033v-.293c.78-.033,1.008-.13,1.008-.943V16.109c0-.846-.228-.911-.975-.943v-.293H16.7l.033,1.756h-.326c-.26-.878-.585-1.171-2.146-1.171H13.025c-.391,0-.455.065-.455.416v2.537h1.367c1.268,0,1.528-.228,1.665-1.04h.293V20.2H15.6c-.162-.943-.651-1.2-1.665-1.2H12.57v2.569Zm7.87,0c0,.846.228.911,1.2.943v.293H17.707v-.293c.943-.033,1.2-.13,1.2-.943V16.109c0-.846-.194-.911-1.2-.943v-.293h3.968v.293c-.943.033-1.2.13-1.2.943ZM29.9,16.3c0-.78-.194-1.106-1.106-1.2v-.293h2.83V15.1c-.878.1-1.106.416-1.106,1.2v6.659h-.416l-5.463-6.309v4.618c0,.78.194,1.106,1.106,1.2v.293h-2.83v-.293c.878-.1,1.106-.416,1.106-1.2V15.932a1.43,1.43,0,0,0-1.106-.813v-.293H25.1l4.781,5.528V16.29Zm4.26,3.642,1.2-3.155,1.2,3.155Zm5.723,2.862v-.293c-.624,0-.748-.228-1.04-.975l-2.83-6.9h-.391L32.7,21.767a1.075,1.075,0,0,1-.975.748v.293h2.569v-.286c-.553,0-.813-.13-.813-.52a8.351,8.351,0,0,1,.455-1.457h2.895A7.866,7.866,0,0,1,37.316,22c0,.391-.293.52-.846.52v.293Zm7.78-6.5c0-.78-.194-1.106-1.106-1.2v-.293h2.83V15.1c-.878.1-1.106.416-1.106,1.2v6.659h-.416l-5.463-6.309v4.618c0,.78.194,1.106,1.106,1.2v.293H40.667v-.293c.878-.1,1.106-.416,1.106-1.2V15.932a1.43,1.43,0,0,0-1.106-.813v-.293h2.178l4.781,5.528Zm10.114,4.65A3.81,3.81,0,0,1,54.2,23.036a3.92,3.92,0,0,1-4.162-4.26,4.164,4.164,0,0,1,4.228-4.13,11.675,11.675,0,0,1,2.211.488c.228,0,.293-.13.52-.488h.416l.162,2.666h-.326a2.872,2.872,0,0,0-2.705-2.146c-1.887,0-2.705,2.049-2.705,3.577,0,2.146.911,3.61,2.927,3.61a3.425,3.425,0,0,0,2.764-1.665Zm3.837.624c0,.846.228.911,1.2.943v.293H58.853v-.293c.943-.033,1.2-.13,1.2-.943V16.116c0-.846-.228-.911-1.2-.943v-.293H62.82v.293c-.943.033-1.2.13-1.2.943ZM66.1,19.953l1.2-3.155,1.2,3.155Zm5.723,2.862v-.293c-.624,0-.748-.228-1.04-.975l-2.83-6.9h-.391l-2.927,7.122a1.075,1.075,0,0,1-.975.748v.293h2.569v-.293c-.553,0-.813-.13-.813-.52a8.351,8.351,0,0,1,.455-1.457H68.77A7.866,7.866,0,0,1,69.257,22c0,.391-.293.52-.846.52v.293Zm.714,0v-.293c.748-.033.975-.13.975-.943V16.116c0-.846-.228-.911-.975-.943v-.293h3.675v.293c-.878.033-1.106.13-1.106.943v5.619c0,.488.13.651,1.008.651,1.431,0,2.277-.26,2.959-1.665h.288l-.553,2.146H72.472V22.8ZM11.729,35.44c.911-.033,1.138-.13,1.138-.943V28.35h-.979c-.911,0-1.3.391-1.561,1.457H10l.194-2.049h7.025l.194,2.049h-.326c-.26-1.106-.624-1.457-1.561-1.457H14.55V34.5c0,.846.228.911,1.138.943v.293H11.852V35.44Zm9.236-.943c0,.846.228.911,1.2.943v.293H18.2V35.44c.943-.033,1.2-.13,1.2-.943V29.033c0-.846-.228-.911-1.2-.943V27.8h3.968v.293c-.943.033-1.2.13-1.2.943Zm9.593-6.765h2.764v.293c-.748.033-.975.13-.975.943v5.5c0,.846.228.911.975.943V35.7H29.7v-.293c.78-.033,1.008-.13,1.008-.943V28.845h-.033l-2.666,6.992h-.39l-2.634-6.992h-.033v5.4c0,.78.194,1.106,1.106,1.2v.293h-2.83v-.293c.878-.1,1.106-.416,1.106-1.2V28.78c0-.553-.228-.748-1.106-.748v-.293h2.895l2.121,5.534Zm3.871,8v-.293c.748-.033.975-.13.975-.943V29.032c0-.846-.228-.911-.975-.943V27.8h6.659l.033,1.756h-.326c-.26-.878-.585-1.171-2.146-1.171H37.412c-.391,0-.455.065-.455.416v2.537h1.367c1.268,0,1.528-.228,1.665-1.04h.293v2.83h-.293c-.162-.943-.651-1.171-1.665-1.171H36.957v2.764c0,.488.13.651,1.561.651s2.277-.26,2.959-1.665h.293l-.553,2.146H34.361v-.13Zm8.463-2.5h.293a3.033,3.033,0,0,0,2.537,2.178,1.265,1.265,0,0,0,1.367-1.333c0-1.853-4.162-2.178-4.162-4.455A2.2,2.2,0,0,1,45.2,27.575a11.626,11.626,0,0,1,2.146.416.418.418,0,0,0,.416-.416h.293v2.569h-.293a2.465,2.465,0,0,0-2.244-2.016,1.118,1.118,0,0,0-1.236,1.138c0,1.626,4.162,1.665,4.162,4.488a2.265,2.265,0,0,1-2.472,2.211c-1.4,0-1.756-.488-2.31-.488-.194,0-.326.13-.416.416h-.416Z" transform="translate(-10 -14.645)"/>
</svg>
