<svg xmlns="http://www.w3.org/2000/svg" width="120" height="69.544" viewBox="0 0 120 69.544">
  <g id="hermes-logo" transform="translate(-0.5 -0.009)">
    <path id="Tracciato_898" data-name="Tracciato 898" d="M11.358,25.717h2.3V30.11H5.48V25.717H7.769V23.144H.5v2.574H2.813V38.655H.5v2.562H7.769V38.655H5.479v-6h8.177v6h-2.3v2.562h7.286V38.655h-2.32V25.717h2.322V23.144H11.36M99.041,38.655H91.876V32.626h6.163V30.075H91.875V25.717h7.22V28.19h2.539V23.144H86.783v2.574h2.422V38.655H86.783v2.562h14.886V35.195H99.043m-62.111,0H34.306v3.461H27.141V32.626h6.165V30.075H27.141V25.717h7.222V28.19H36.9V23.144H22.051v2.574h2.422V38.655H22.049v2.562H36.932M92.567,22.252h5.208l-1.332-1.588H91.1m25.048,10.218c-1.817-.518-3.1-.4-4.949-1.017-1.669-.56-2-1.586-2-2.266s.737-2.455,3.36-2.455,4.344,1.736,4.441,3.264l.01-.007v.007h2.521V23.139H117.1v1.148l.076.358a1.347,1.347,0,0,0-.344-.452.021.021,0,0,1,0-.014,6.629,6.629,0,0,0-4.466-1.454c-2.687,0-5.852,1.666-5.852,4.887,0,3.139,2.268,4.234,4.191,4.742s2.909.511,4.516.946,2.643,1.4,2.643,2.835c0,1.356-.835,3.135-4.229,3.135s-4.742-1.833-5.135-4.455l-.028.012h-2.4v6.4h2.508v-1.2l-.007-.009-.09-.316a1.085,1.085,0,0,0,.376.412l.024.035a8.112,8.112,0,0,0,5.071,1.621c2.382,0,6.552-1.222,6.552-5.553-.007-3.1-1.652-4.56-4.347-5.335ZM76.024,38.655v2.562H83.4V38.655H80.98V25.717H83.4V23.144H76.806L72.442,33.706l-.09.518-.087-.527L67.9,23.142H61.316v2.574h2.412V38.654H61.312v2.562H68.68v-2.56h-2.3v-11.9l.017-.786.214.626,5.026,12.025h1.429l5.043-12.029.184-.633.028.713V38.655M25.66,15.534v.591h2.487q-.369-.278-.71-.591Zm66.979.01H91.344a.842.842,0,0,0-.656.581h1.948v-.583ZM25.66,17.85H92.628V16.6H49.557a4.37,4.37,0,0,1-3.586,0H32.894A4.9,4.9,0,0,1,29,16.6l-3.339-.009v1.252Zm18.857-2.316H34.4a4.456,4.456,0,0,1-.685.591H45.16A3.677,3.677,0,0,1,44.517,15.534Z" transform="translate(0 11.473)" fill="#6f6e6e"/>
    <path id="Tracciato_899" data-name="Tracciato 899" d="M16.365,22.36a4.319,4.319,0,1,0,8.178-.228c.5-.087.984-.191,1.464-.325.226-.061.217-.163.04-.217a18.186,18.186,0,0,0-2.017-.476,4.313,4.313,0,0,0-3.539-1.85,4.237,4.237,0,0,0-1.565.3c-.007,0-.014-.014-.017-.017a1.313,1.313,0,0,1-.052-1.169,2.858,2.858,0,0,1,2.217-1.064,2.959,2.959,0,0,1,.986.094.756.756,0,0,0,.713.07c.275.1.344.186.657.283a17.664,17.664,0,0,0,8.886.869A8.561,8.561,0,0,1,33.4,20.442c.09.139.2-.1,1.718-.157.536-.021,1.193-.017,1.765,0a3.818,3.818,0,0,0-2.8,1.76,11.794,11.794,0,0,0-1.956.758c-.337.2-.4.316,0,.421a10.644,10.644,0,0,0,1.421.266,3.64,3.64,0,0,0-.059.588,3.835,3.835,0,1,0,7.194-1.817c.483-.174.991-.365,1.53-.574a2.32,2.32,0,0,1,1,.748c.243.275.795.167,1.122.087.53-.139.612-.562.609-1.043a1.173,1.173,0,0,1,.115-.609c.621-1.414,3.1-1.6,4.375-1.913a4.135,4.135,0,0,1-1.137.977c-.1,2.064-.887,3.861-.983,5.829.6.024.574.7.718,1.078-.167.362-.456,0-.718.122-.911-.5.216-1.318-.529-1.942a19.556,19.556,0,0,0,.956-5.012c-.238.024-.33.289-.43.48a27.411,27.411,0,0,1-1.078,4.7c.191.1.527.191.5.48-.577.36.023.939-.217,1.349H40.6l-.657.591h9.081l.087-.334c-1.339-1.391-.835-3.478-.214-5.06L50.453,20.1c1.3-.5,2.087-2.087,3.454-2.591,0,.673-.84.962-1.3,1.344-.476,1.127-1.989,1.247-2.205,2.5a19.727,19.727,0,0,0,2.156,1.727c.744.457.476,1.416,1.078,1.9.1.144,0,.36-.17.48-.631.151-.612.577-.231.932.243.226.522.522.49.633H49.538c0,.191.17.264.355.591H73.039c.174-.327-.2-.713-.365-1.035-1.635-.617-1.626-2.163-1.722-3.867a2.747,2.747,0,0,1-.077-.583,8.316,8.316,0,0,1-.829-5.106l.356-.7c.336-.482-.021-.739.217-1.242l4.878-.943c.087-.045.064-.243-.028-.334l-1.482.275a10.664,10.664,0,0,1-4.041-3.078,17.507,17.507,0,0,0-.061-5.669c.713-.591,1.294-1.151,1.294-1.151.492.3.6.157.666,0-.078-.09-.809-.4-.689-.716.461.122.563-.021.635-.278l-.323-.115h-.01l.052-.174c.094-.191.529-.01.7-.059.29-.177-.035-.443.063-.683-.678-.574-1.9-.591-2.643-1.125a1.96,1.96,0,0,0-.563-.783A3.462,3.462,0,0,0,67.54.028a2.688,2.688,0,0,0-.574.423A2.177,2.177,0,0,1,65.2.042a1.262,1.262,0,0,0,.72.866,1.441,1.441,0,0,0-.859,1.238.93.93,0,0,0-.67,1.217.905.905,0,0,0-.33,1.322.973.973,0,0,0-.3,1.282c-.452.278,0,1.05.07,1.5,1.3-.268,2.921,2.6,5.252,2.953a5.251,5.251,0,0,0-.616-4.061,10.338,10.338,0,0,0,1.191-.845,18.118,18.118,0,0,1,.139,5.316.289.289,0,0,1-.045-.049,1.188,1.188,0,0,1-.41-.144c.024.07.292.5.238.574a2.488,2.488,0,0,1-2.252-.13c-.4.936-5.54,3.235-5.54,3.235a5.609,5.609,0,0,0,1.562,3.13,8.93,8.93,0,0,0,3.676,1.527c.292.755,1.235,3.266,1.322,3.669s.318.4.318.4a4.638,4.638,0,0,1,.623,1.365l.11,1.356c.047.31.452.077.529.341l-.188.911-15.4,0c.216-1.078-.334-2.021-.049-2.981-.619-1.078-2.3-1.822-2.014-3.238.817-1.127,3.356-2.226,2.782-3.588,2.308-1.17,3.525.783,5.711.638a10.628,10.628,0,0,0,2.308-.33A8.718,8.718,0,0,1,60.953,14.7a78.677,78.677,0,0,1-14,4.368l-.383-.122c-.377.057-5.848,1.287-7.3,1.852a3.812,3.812,0,0,0-1.235-.475h.127a6.213,6.213,0,0,0,1.676-.423c2.125-.776,2.908-3.8,3.861-5.725.835,2.991,2.772,3.235,3.9,2.862l.1.939a6.035,6.035,0,0,0,1.718-.33,5.949,5.949,0,0,1-.243-1.276c.447-.231.689-.4.892-.518a3.428,3.428,0,0,1-.108,1.739l2.528-.675A15.331,15.331,0,0,1,56.63,9.471a5.912,5.912,0,0,0-6.081.748c-2.951.943-3.069,5.015-2.981,6.417-.511.1-2.657.845-3.673-2.869a13.748,13.748,0,0,1,2.974-4.248c.11-.092-.017-.238-.27-.09-2.534,1.739-3.461,4.8-4.822,7.384a4.935,4.935,0,0,1-4.671,2.382c-2.7-.042-4-2.857-5.241-4.685-1.9-4.151-6.8-2.661-10.444-3.548-.2-.1-.609-1.3-1.189-1.259-.412.031-.024.456-.261.6-.457-.191-.842-.527-1.416-.431-.36.073-.457.456-.431.793.287,1.318,1.7,1.9,2.756,2.375a5.39,5.39,0,0,1-.083,3.414c-.435.8-2.144.515-2.487,2.348a1.55,1.55,0,0,0,.17,1,4.339,4.339,0,0,0-1.631,1.5,20.307,20.307,0,0,0-2.094.605c-.174.063-.174.163.052.216.51.1,1.033.191,1.562.257Zm54-10.263a9.818,9.818,0,0,0,3.078,2.061l-2.77.513c.313-1.174-.755-1.624-.31-2.574Zm.3-9.5c.1-.043.4.07.516.1.073.017.045.174.009.313a.562.562,0,0,1-.5-.157c-.052-.1-.125-.212-.023-.257Zm.023.713a1.6,1.6,0,0,0,.238.609A6.062,6.062,0,0,1,69.82,4.988c-.146-.725-.3-1.224-.33-1.422A1.886,1.886,0,0,1,70.689,3.31ZM68.037.766a.589.589,0,0,1,.374.077c.057.043.01.219.007.278s-.264.184-.264.184-.25-.191-.247-.25l-.012-.005a2.313,2.313,0,0,1,.143-.283Zm.325,5.361a4.326,4.326,0,0,1-.522-2.382,2.5,2.5,0,0,0,1.382-.073,13.974,13.974,0,0,1,.374,1.5C69.145,5.544,68.675,5.911,68.362,6.127ZM64.215,17.622c-.991-.5-.374-.08-.087-.3a5.292,5.292,0,0,0,3.537.414c.169.216.4.417.4.7-1.438.409-2.556-.122-3.852-.821Zm5.657,7.738a2.8,2.8,0,0,0-.487-1.664c-.278-.758-1.085-2.866-1.659-4.765.348-.344.617-.165.849.779.221.762.487,1.391.689,2.028.268.64.47,1.492.675,1.941a.42.42,0,0,1,.282.273c.5,1.409.636,1.635.551,2.306.122.527.863.1.795.748H69.994L70.686,27c-.476-.5-.139-1.256-.814-1.64ZM39.21,26.621a3.137,3.137,0,0,1-1.525.6c-.056-.017-.1-.13-.108-.2l-.09-1.96c0-.021.031-.043.052-.052a2.05,2.05,0,0,0,.236-.1.1.1,0,0,1,.092,0L39.155,26.4c.045.056.087.177.052.226Zm-1.989.626a3.175,3.175,0,0,1-1.438-.4.263.263,0,0,1,.017-.235l1.075-1.638c.01-.017.052-.017.077-.01a1.805,1.805,0,0,0,.212.052c.024,0,.07.035.07.057l.1,1.965c0,.07-.052.191-.11.209Zm-2.713-4.081c-.07-.021-.174-.115-.17-.174a3.163,3.163,0,0,1,.391-.758c.261-.075.53-.146.8-.216l.869,1.1-.04.005a14.6,14.6,0,0,1-1.589.111l-.261-.07Zm2.447-2.243a.261.261,0,0,1,.1.2l.009.153c-.522.1-1.033.214-1.523.339-.031-.064-.047-.139-.021-.174a3.157,3.157,0,0,1,1.426-.516Zm-.275,2.139L35.8,21.955c.428-.1.859-.2,1.29-.285l.059,1.3c-.174.042-.318.07-.466.1Zm-.083.348c0,.012,0,.024-.007.035a1.643,1.643,0,0,0-.113.186.1.1,0,0,1-.078.052l-.635-.174c.271-.028.548-.052.835-.1Zm1.17-.236c-.01.017-.052.017-.077.009h-.009l.092-.021-.005.01Zm-.37-.27-.061-1.282c.532-.1,1.056-.184,1.555-.243a.454.454,0,0,1-.045.153l-.788,1.2c-.233.07-.449.122-.661.174Zm1.657-1.235a.261.261,0,0,1,.205-.11,3.335,3.335,0,0,1,.609.614c-.47.157-.956.306-1.44.452l.626-.956Zm-1.739-.44,0-.122c0-.073.052-.2.108-.214a3.153,3.153,0,0,1,.939.174c-.348.045-.692.1-1.043.16Zm-.043-.339c.017,0,.031-.005.047-.005l.042,0h-.09Zm-4.553,2.163c-.17-.052-.13-.1-.028-.148.343-.136.727-.27,1.13-.4a4.137,4.137,0,0,0-.233.7,4.876,4.876,0,0,1-.869-.146Zm1.469.5c.257.014.522.01.788.005l1.349.37c.017.005.031.045.031.07a1.452,1.452,0,0,0,.024.252.058.058,0,0,1-.038.052l-1.8.795a.269.269,0,0,1-.236-.021,2.8,2.8,0,0,1-.125-1.52Zm.2,1.769-.005-.012A.026.026,0,0,0,34.388,25.317Zm.1.181c0-.059.1-.15.157-.177l1.809-.755c.017-.01.052.017.066.035.031.038.078.1.122.139a.1.1,0,0,1,.028.087l-1.078,1.645a.258.258,0,0,1-.212.1,3.153,3.153,0,0,1-.887-1.078Zm1.073,1.223a.537.537,0,0,0-.045-.031l.047.03Zm1.756.532h0Zm2.261-.934c-.052.031-.183-.035-.231-.087l-1.282-1.49c-.017-.014,0-.052.01-.075a1.346,1.346,0,0,0,.092-.16c.012-.023.052-.056.078-.052l1.9.525a.318.318,0,0,1,.177.139A3.239,3.239,0,0,1,39.575,26.318Zm.866-1.635c-.031.052-.174.07-.243.052l-1.887-.522c-.023-.005-.035-.045-.035-.07a1.641,1.641,0,0,0-.014-.217.1.1,0,0,1,.03-.087l1.833-.7a.28.28,0,0,1,.235.031,3.21,3.21,0,0,1,.139.892,3.3,3.3,0,0,1-.061.617ZM40.2,22.727c0,.061-.1.157-.16.183l.122-.042-1.953.734c-.021.009-.052-.017-.066-.035A1.922,1.922,0,0,0,38,23.4a.1.1,0,0,1-.03-.087l.169-.256c.595-.157,1.235-.358,1.913-.591a2.812,2.812,0,0,1,.146.264Zm5.1-2.8c-.849.612-.449,1.334-.974,1.478a6.542,6.542,0,0,0-1.426.243,2.878,2.878,0,0,0-1.28-.765,16.1,16.1,0,0,1,3.68-.956Zm-3.452,1.522c-.183.087-.67.275-1.325.5a3.77,3.77,0,0,0-.57-.671,4.834,4.834,0,0,1,1.9.167ZM51,10.706c-1.283,1.29-1.118,3.217-.969,4.733a8.6,8.6,0,0,1-.9.529C49,14.107,49.2,11.332,51,10.706Zm-32.119.654c-.216-.289-.532-.73-.287-1.031.181-.223.55-.049.765.049a20.716,20.716,0,0,0,2.012.977c2.9.723,6.573-.343,8.876,1.744a.38.38,0,0,1,.17.348c-3.379-2.3-8.465,1.1-11.535-2.087Zm2.734,3.718c.24.144.336.527.6.743.431.72,1.247.96,1.678,1.582a1.455,1.455,0,0,1-.435-.031,2.47,2.47,0,0,1-.63-.243.529.529,0,0,0-.687-.139,3.457,3.457,0,0,1-1.1-.087c.07-.577.626-1.13.574-1.826Zm-3.381,6.208.883.983c-.64-.005-1.257-.035-1.843-.075a.209.209,0,0,1-.057-.157,3.674,3.674,0,0,1,.409-.661c.2-.035.4-.061.609-.087Zm5.238.243a3.733,3.733,0,0,1,.278.5c-.435.064-.9.113-1.384.151l.69-.591a.346.346,0,0,1,.414-.056Zm-.609-.153-.981.835c-.25.017-.5.024-.76.035l.4-1.137c.5.017.981.052,1.431.1a.408.408,0,0,1-.087.17Zm-.24,5.121a3.654,3.654,0,0,1-1.165.562.415.415,0,0,1-.264-.3l-.383-2.075a.059.059,0,0,1,.03-.07.939.939,0,0,0,.209-.1.052.052,0,0,1,.07.014l1.417,1.558a.374.374,0,0,1,.087.409Zm-3-3.669a.066.066,0,0,1,.009.077.634.634,0,0,0-.094.134.053.053,0,0,1-.07.017l-1.579-.563c.487.028.977.04,1.466.04l.268.3Zm1.565-.078a.821.821,0,0,0-.157-.113.046.046,0,0,1-.024-.064l.03-.08.55-.028-.33.278a.049.049,0,0,1-.066.007Zm-.374-.5c-.139,0-.271.012-.407.014H20.4L20.184,21.1c.07,0,.13-.012.2-.017.287,0,.567.01.849.017l-.417,1.153ZM19.9,21.12l.212,1.148c-.2,0-.4,0-.6,0l-.939-1.026c.431-.052.873-.092,1.33-.122Zm.235,1.409c-.005.007,0,.021-.01.024a1.088,1.088,0,0,0-.209.1.052.052,0,0,1-.07-.014l-.1-.108c.129,0,.261,0,.388-.005Zm-2.991-.348c.005-.014.017-.03.023-.047a.317.317,0,0,1-.023.049Zm-.162.525a.4.4,0,0,1,.4-.087l1.988.71a.057.057,0,0,1,.038.061,1.143,1.143,0,0,0-.017.195c0,.028-.023.043-.047.052l-2.076.386a.362.362,0,0,1-.377-.139c-.009-.1-.03-.2-.03-.306a3.466,3.466,0,0,1,.118-.873Zm.035,1.868a.408.408,0,0,1,.306-.275l2.069-.379a.054.054,0,0,1,.063.035.616.616,0,0,0,.066.15.056.056,0,0,1-.017.07L17.854,25.5a.347.347,0,0,1-.409.052,3.786,3.786,0,0,1-.431-.977Zm.5,1.071a.5.5,0,0,1-.049-.07.7.7,0,0,0,.047.07Zm.388.473a.4.4,0,0,1,.136-.4l1.645-1.313a.045.045,0,0,1,.07-.009,1.068,1.068,0,0,0,.184.134.045.045,0,0,1,.021.066l-.713,1.986c-.077.2-.237.278-.308.264a3.7,3.7,0,0,1-1.033-.73Zm1.205.814a.422.422,0,0,1-.064-.028l.063.028Zm.5.157a.385.385,0,0,1-.1-.4l.72-1.993a.05.05,0,0,1,.057-.038,1,1,0,0,0,.2.017.056.056,0,0,1,.052.052l.388,2.078a.365.365,0,0,1-.13.372c-.1.007-.195.03-.3.03a3.439,3.439,0,0,1-.883-.122Zm3.426-.922a.3.3,0,0,0,.045-.052C23.053,26.132,23.041,26.15,23.026,26.167Zm.127-.148a.4.4,0,0,1-.4-.108l-1.407-1.572a.058.058,0,0,1-.005-.075.657.657,0,0,0,.09-.136.045.045,0,0,1,.066-.017l2.017.716c.209.082.261.247.243.313a3.779,3.779,0,0,1-.6.878Zm.609-.908a2.025,2.025,0,0,0,.1-.219q-.044.11-.1.217Zm.231-.656a.36.36,0,0,1-.395.1l-2.007-.72a.061.061,0,0,1-.04-.061.88.88,0,0,0,.017-.169c0-.028.024-.043.049-.052l2.116-.33c.209-.026.341.073.362.144,0,.07.017.139.017.209a3.545,3.545,0,0,1-.117.873Zm-.009-1.777a.367.367,0,0,1-.3.268l-2.1.33a.057.057,0,0,1-.063-.035,1.11,1.11,0,0,0-.087-.209.052.052,0,0,1,.009-.07l.626-.536c.6-.045,1.191-.113,1.779-.2a3.893,3.893,0,0,1,.139.452Zm1.083-1.089c.136.043.183.134.01.181s-.4.087-.609.13a4.3,4.3,0,0,0-.283-.522,8.476,8.476,0,0,1,.88.209Zm-3.438-.77.087-.249a.352.352,0,0,1,.32-.254,3.7,3.7,0,0,1,.922.626q-.663-.086-1.33-.122Zm-.275-.748a.424.424,0,0,1,.1.409l-.118.33c-.322-.014-.64-.031-.962-.028-.083,0-.162.017-.247.017l-.082-.445a.347.347,0,0,1,.136-.37c.1-.009.2-.031.3-.031a3.619,3.619,0,0,1,.873.117Zm-1.861.035a.41.41,0,0,1,.27.306l.052.283a4.282,4.282,0,0,1-.49-.536l.17-.052Zm-.122.753c-.337.031-.673.07-1.005.122a.327.327,0,0,1-.035-.306,3.646,3.646,0,0,1,.532-.323A5.825,5.825,0,0,0,19.372,20.86ZM17.925,21.009Zm-2.209.828a9.4,9.4,0,0,1,.967-.275,4.531,4.531,0,0,0-.252.553c-.249-.03-.5-.057-.713-.1-.177-.031-.134-.132,0-.181Zm63.829-10.3c-.073.061-.1.144-.038.157a.55.55,0,0,1,.3.177c.07.035.052-.073.035-.132-.07-.167-.216-.268-.3-.2Z" transform="translate(10.442 0)" fill="#6f6e6e"/>
    <path id="Tracciato_900" data-name="Tracciato 900" d="M72.028,26.583H68.609c-.043.231.226.4.383.579h3.734l1.043-.508c.184-.452-.188-.852-.174-1.217a9.223,9.223,0,0,0-.864-3.17c.209-.221.47-.73.812-.595a7.031,7.031,0,0,1,.812,4.417c-.082.391-.748.748-.727,1.116.012.129.887.073,1.249-.235a1.3,1.3,0,0,1,.685-.6c.167-.478-.094-.463-.052-.751a9.776,9.776,0,0,0-.177-2.588c-.056-.035-.075-.035-.078-.03-.167-.428.24-1.083.4-1.489L76.85,21.4c-.143-1.061-.522-2.163-.762-3.252a1.818,1.818,0,0,1,.652-.6c1.257-.829.15-2.167.108-3.2-.214-.536-.951-.953-1.019-1.544a.4.4,0,0,0,.3.078c.36-.247.343-.6.163-1.05a13.159,13.159,0,0,0,.981-1.156,1.914,1.914,0,0,0-1.422-1.356c-.3.167-.5.5-1.061.936-.017.023-.668-.226-.864-.017-.191.157-.125.661.226.934a3.1,3.1,0,0,1-.157.348c-.038.08-.056.165-.005.212a.45.45,0,0,1,.075.515c-.087.264.209.459.313.5a.3.3,0,0,1,.087.087c.038.292-.953.817-.953,1.043-.078.683-.5.616-.918,2.861A7.847,7.847,0,0,1,72.6,18.2c-.508,1.342-.922,2.116-1.266,3.087-.285.8,1.315,3.116,1.339,4.7-.348.522-.626.447-.649.6Zm2.6-2.405a1.534,1.534,0,0,1-.108-.741c.139-.134.4-.035.532-.056.162.748.2.852-.423.8Zm.012-11.055a.831.831,0,0,0,.113-.186c.527-.337.163-.094-.36-.37-.17-.087-.174-.25-.153-.482a.519.519,0,0,0-.132-.435c-.017-.038.064-.179.132-.278.122-.184.231-.567.289-.661.873.035.678.421.7.49a2.445,2.445,0,0,0,.614.718c-.052.529-.466.217-.282.7-.049.915-1.136.8-1.6,1.551-.047-.744.609-.743.678-1.049Zm-.991,3.937a2.452,2.452,0,0,0,.668.529c.125.313-.261.356-.4.5-.325.049-.447-.3-.636-.139-.043.035-.238-.005-.235-.043a2.545,2.545,0,0,1,.6-.852Zm-2.061,4.66c-.122-.633.72-1.617,1.28-3.548.23-.08.351.447.678.243.5.012.289,1.325.758.49-.01-.369-.021-.783.271-.979a.407.407,0,0,1,.543.383l-.487.758c.922.035-.3,1.516.922,1.245-.04.556-.339,2.116-.553,2.038-.167-.864-.3-.5-.3-.25a1.61,1.61,0,0,0,.226.88c-.066.07-.313.063-.383.078-.689-.983-.661-2.33-1.1-3.4a.182.182,0,0,0-.165.165,2.56,2.56,0,0,1-.831,1.878c-.33.195.727.077-.139.483.33.219.026.516-.337.516a4.538,4.538,0,0,1-.374-.986Zm.913,2.132a4.117,4.117,0,0,1-.4-.751l.5-.209a1.476,1.476,0,0,1,.336.783A1.13,1.13,0,0,1,72.5,23.852ZM56.264,13.488c-.075-1.026.348-1.9-.13-2.991.005-.452.322-.8.237-1.217l-.777.188a5.626,5.626,0,0,0-.144,1.96c.205.93.31,1.777.814,2.062Zm-8.031,2.869a58.887,58.887,0,0,0,7.49-2.582,6.348,6.348,0,0,1-.713-4.226A11.171,11.171,0,0,1,52.3,9.181c-1.725,1.113-3.739,5.1-4.069,7.175Zm10.2.635C58.278,16.836,58.514,17.086,58.438,16.992Zm3.574-6.643c-1.252-.863-2.222-2.869-3.588-2.734-.132-1.478-.777-3.987,1.264-6.634.264-.122.7-.169.863-.362-.835-.087-1.934.43-2.73-.023,0,0,.369.643.8.741-.282.383-.828.656-.5,1.322A.862.862,0,0,0,57.907,4a.937.937,0,0,0-.1,1.367c-.556.6.134,1.1.3,1.3a1.18,1.18,0,0,0-.01,1.057c-.01.43-.776,1.043-1.052,1.242a16.361,16.361,0,0,0-.153,4.382,21.879,21.879,0,0,0,5.12-3ZM40.622,46a3.675,3.675,0,0,0-1.68-2.9,1.791,1.791,0,0,0-.783-.254,1.971,1.971,0,0,0,.857-.129.1.1,0,0,1,.031-.007,4.082,4.082,0,0,0,2.177-3.861,4.435,4.435,0,0,0-1.843-3.713,6.03,6.03,0,0,0-3.657-.963H25.6v2.574h2.278V49.713H25.6v2.563h7.187V49.711H30.543V44h4.968a2.2,2.2,0,0,1,2.41,2.116l.125,6.156h4.967v-2.56H40.691L40.622,46Zm-4.574-4.487h-5.5V36.75h5.208A3.9,3.9,0,0,1,37.487,37a2.32,2.32,0,0,1,1.24,2.17,2.52,2.52,0,0,1-2.678,2.348ZM24.705,58.641H21.274V68.982H22.8V64.506h1.7c2.469,0,3.591-1.269,3.591-2.894s-1.061-2.974-3.388-2.974Zm-.063,4.534H22.808v-3.2h1.9c1.391,0,1.809.817,1.809,1.572,0,1.035-.73,1.628-1.871,1.628Zm9.4-4.594-4.577,10.4h1.652l1.252-3.048H36.9l1.3,3.048h1.687l-4.765-10.4H34.038ZM32.963,64.6l1.593-4.087L36.273,64.6H32.962Zm22.593-5.956h1.53V68.982h-1.53Zm7.893,2.426c0-.73.744-1.229,1.781-1.229a3.953,3.953,0,0,1,2.647,1.078V59.228a4.812,4.812,0,0,0-2.513-.725c-2.066,0-3.421,1.073-3.421,2.758,0,2.835,4.874,3.078,4.874,5.217,0,.574-.577,1.3-1.835,1.3a3.92,3.92,0,0,1-2.974-1.5v1.878a5.262,5.262,0,0,0,3.155.956,2.906,2.906,0,0,0,3.155-2.8c.007-3.292-4.869-3.261-4.869-5.248Zm-13.3,5.867a8.619,8.619,0,0,0-2.417-2.866,2.593,2.593,0,0,0,1.812-2.53c0-1.788-1.37-2.9-3.565-2.9H43.236V68.984H44.8V64.492h.654c.8,0,1.449.243,2.881,2.365L49.7,68.982h1.831l-.805-1.2q-.3-.414-.579-.845ZM45.8,63.16h-1V59.914h1c1.513,0,2.118.591,2.135,1.562.012.869-.463,1.683-2.135,1.683Z" transform="translate(15.352 0.435)" fill="#6f6e6e"/>
  </g>
</svg>
