<svg id="kering-logo" xmlns="http://www.w3.org/2000/svg" width="120" height="41.627" viewBox="0 0 120 41.627">
  <path id="Tracciato_901" data-name="Tracciato 901" d="M145.237.184a58.97,58.97,0,0,0-9.877,5.262,34.287,34.287,0,0,0-5.764,4.731,8.228,8.228,0,0,1-1.536-.349,11.644,11.644,0,0,0,2.069-1.472A5.353,5.353,0,0,0,132.117,4.5,3.885,3.885,0,0,0,131.09,1.66a6.179,6.179,0,0,0-7.749,0A3.9,3.9,0,0,0,122.323,4.5a5.354,5.354,0,0,0,1.983,3.853,11.615,11.615,0,0,0,2.068,1.47,7.911,7.911,0,0,1-1.537.352,34.224,34.224,0,0,0-5.758-4.731A59.5,59.5,0,0,0,109.2.183L108.74,0l.066.525a10.779,10.779,0,0,0,1.52,4.008,12.959,12.959,0,0,0,7.985,5.723,17.124,17.124,0,0,0,6.329.614c.3.317.572.634.835.954a16.8,16.8,0,0,1,1.424,2,10.974,10.974,0,0,0-1.264,5.144,5.149,5.149,0,0,0,.66,2.518,1.061,1.061,0,0,0,.923.476,1.048,1.048,0,0,0,.921-.476,5.122,5.122,0,0,0,.666-2.518,11.071,11.071,0,0,0-1.268-5.144,17.227,17.227,0,0,1,1.426-2q.405-.488.833-.954a17.115,17.115,0,0,0,6.33-.614,12.953,12.953,0,0,0,7.985-5.723A10.836,10.836,0,0,0,145.631.525L145.69,0ZM118.453,9.626a12.414,12.414,0,0,1-7.638-5.447A11.43,11.43,0,0,1,109.492,1a58.934,58.934,0,0,1,9.28,5,34.261,34.261,0,0,1,5.275,4.251,17.229,17.229,0,0,1-5.594-.625m6.185-1.741A4.8,4.8,0,0,1,122.883,4.5a3.368,3.368,0,0,1,.835-2.415A5,5,0,0,1,127.207.911l.013-.22.011.22a4.978,4.978,0,0,1,3.482,1.177,3.365,3.365,0,0,1,.836,2.415A4.785,4.785,0,0,1,129.8,7.884a10.473,10.473,0,0,1-2.58,1.619,10.584,10.584,0,0,1-2.58-1.617m3.868,11.189c0,.028-.017,2.744-1.288,2.744s-1.289-2.716-1.289-2.744a9.992,9.992,0,0,1,1.288-4.681,10.031,10.031,0,0,1,1.289,4.681m.022-7.689a14.483,14.483,0,0,0-1.308,1.858,15.867,15.867,0,0,0-1.309-1.859q-.261-.313-.53-.619a8.414,8.414,0,0,0,1.837-.534,8.387,8.387,0,0,0,1.839.534c-.18.209-.364.416-.528.619M143.619,4.18a12.385,12.385,0,0,1-7.639,5.447,17.227,17.227,0,0,1-5.595.625A34.589,34.589,0,0,1,135.663,6a59.256,59.256,0,0,1,9.28-5,11.221,11.221,0,0,1-1.324,3.179" transform="translate(-65.244)" fill="#6f6e6e"/>
  <path id="Tracciato_902" data-name="Tracciato 902" d="M149.147,8.368c0,.446.211.077.732.077.546,0,.737.368.739-.077a.777.777,0,0,0-.74-.8.7.7,0,0,0-.518.236.842.842,0,0,0-.213.568m3.83.077c.541,0,.734.368.734-.077A.84.84,0,0,0,153.5,7.8a.7.7,0,0,0-1.041,0,.843.843,0,0,0-.217.569c0,.446.214.077.738.077" transform="translate(-89.488 -4.254)" fill="#6f6e6e"/>
  <path id="Tracciato_903" data-name="Tracciato 903" d="M151.159,4.273a1.723,1.723,0,0,0-1.579.6v.487l0,0v.163a1.868,1.868,0,0,1,1.411-.64c1.079,0,1.56.788,1.56,1.768a4.387,4.387,0,0,1-2.976,3.732,4.4,4.4,0,0,1-2.974-3.732c0-.983.484-1.768,1.568-1.768a1.877,1.877,0,0,1,1.408.64l0-.161V4.871a1.7,1.7,0,0,0-1.573-.6,2.168,2.168,0,0,0-1.938,2.345,4.911,4.911,0,0,0,3.513,4.228,4.914,4.914,0,0,0,3.511-4.228,2.168,2.168,0,0,0-1.935-2.345" transform="translate(-87.642 -2.402)" fill="#6f6e6e"/>
  <path id="Tracciato_904" data-name="Tracciato 904" d="M61.543,11.209c0,.365.238,1.017.4,1.017s.4-.653.4-1.017-.176-.478-.4-.478-.395.125-.395.478M12.632,47.276c-1.264,0-2.006-.425-2.98-1.9L8.067,43a3.345,3.345,0,0,0-3.283-1.706l-3.442,0v5.98H0V33.938H1.342v5.994H3.814c1.622,0,2.4-.658,3.346-2.017l2.77-3.977h1.676L8.65,38.185a6.145,6.145,0,0,1-2.088,2.138v.019a3.991,3.991,0,0,1,2.72,2.013l1.458,2.139c.674,1,1.162,1.416,1.893,1.416h.4l-.125,1.365h-.273Zm10.266,0,0-13.338H33.488l.145,1.358h-9.4v4.581h8.881v1.474H24.235V45.8h10.06l-.248,1.474H22.9Zm35.005,0c-1.247,0-1.986-.425-2.965-1.9l-.818-1.271a3.317,3.317,0,0,0-3.267-1.753H46.7l0,4.921H45.355V33.939H51.5c3.06,0,4.75,1.745,4.75,4.134a3.727,3.727,0,0,1-2.713,3.667v.018a4.15,4.15,0,0,1,1.749,1.677l.729,1.06c.678,1.011,1.163,1.416,1.9,1.416h.415l-.153,1.365H57.9ZM51.5,35.3H46.7v5.683h4.8c1.926,0,3.3-.976,3.3-2.852,0-1.837-1.407-2.831-3.3-2.831m16.852-1.358H69.69V47.276l-1.339,0V33.939ZM93.975,47.276,82.706,36h-.034V47.276h-1.34V33.939h1.244L93.846,45.224h.035V33.938h1.338V47.276Zm19.923.386c-5.865,0-8.536-3.306-8.536-7.1,0-3.835,2.738-7.023,8.282-7.023a13.869,13.869,0,0,1,5.758,1.239v1.526a12.95,12.95,0,0,0-5.778-1.4c-4.589,0-6.8,2.584-6.8,5.7,0,3.186,2.356,5.7,7.075,5.7a11.22,11.22,0,0,0,4.744-1.009V41.971h-5.061l.159-1.369H120l0,5.594a12.8,12.8,0,0,1-6.1,1.465" transform="translate(0 -6.035)" fill="#6f6e6e"/>
</svg>
