<svg xmlns="http://www.w3.org/2000/svg" width="90" height="17.733" viewBox="0 0 90 17.733">
  <path id="Tracciato_920" data-name="Tracciato 920" d="M14.8,93.873v2.08H2.834V81.65H4.989V93.873Zm-1.675-7.022L15.52,81.91H13.247l-1.8,4.941ZM32.694,84a8.852,8.852,0,0,0-3.244-3.2,8.912,8.912,0,0,0-8.813,0,8.739,8.739,0,0,0,0,15.211,8.912,8.912,0,0,0,8.813,0A8.726,8.726,0,0,0,32.694,84ZM30.832,91.9a6.8,6.8,0,0,1-2.426,2.518,6.407,6.407,0,0,1-6.61,0A6.806,6.806,0,0,1,19.37,91.9a7.124,7.124,0,0,1,0-6.9A6.8,6.8,0,0,1,21.8,82.488a6.4,6.4,0,0,1,6.61,0,6.8,6.8,0,0,1,2.426,2.517,7.12,7.12,0,0,1,0,6.9Zm18.082-4.086a3.767,3.767,0,0,1-1.7,1.8,2.573,2.573,0,0,1-1.411.423l4.189,5.916H47.6l-4.051-5.721H38.26v5.721H36.105V81.65h8.617a4.814,4.814,0,0,1,2.534.663,3.96,3.96,0,0,1,1.771,2.225A5.2,5.2,0,0,1,48.914,87.818Zm-2.41-.1a2.359,2.359,0,0,0,.7-1.781,2.582,2.582,0,0,0-.789-1.764,2.194,2.194,0,0,0-1.572-.444H38.26v4.421h6.583A2.335,2.335,0,0,0,46.5,87.72Zm14.854.041v1.95h-7.3v4.162h9.814v2.08H51.9V81.65H63.871v2.08H54.058v4.031h7.3Zm.119-8.323H58.246L56.93,81.26Zm6.613,12.873-1.707,3.641H64.231l6.7-14.3h2.155l6.7,14.3H77.635l-1.706-3.641H68.091Zm3.918-8.363-3.066,6.543h6.132Zm20.825,9.924v2.08H80.867V81.65H83.02V93.873ZM91.9,84.52l-.019-.341a.667.667,0,0,0-.022-.2.638.638,0,0,0-.106-.2.2.2,0,0,0-.132-.081.428.428,0,0,0,.222-.2.729.729,0,0,0,.09-.366.8.8,0,0,0-.108-.4.655.655,0,0,0-.632-.262H90.24v2.39h.37v-.981h.553a.354.354,0,0,1,.262.076c.133.171.074.4.1.587a.8.8,0,0,0,.055.318h.416v-.074C91.918,84.761,91.911,84.641,91.9,84.52Zm-.457-1.053a.5.5,0,0,1-.315.079h-.522v-.728c.228,0,.457-.01.683.009a.308.308,0,0,1,.244.188.407.407,0,0,1-.09.451Z" transform="translate(-2.834 -79.439)" fill="#6f6e6e"/>
</svg>
