<svg id="pangaia" xmlns="http://www.w3.org/2000/svg" width="120" height="24.112" viewBox="0 0 120 24.112">
  <path id="Tracciato_913" data-name="Tracciato 913" d="M21.11,14.568H15.382l2.865-8.314Zm-.2-12.534A2.77,2.77,0,0,0,17.268.194,2.987,2.987,0,0,0,15.6,1.981L8.13,23.684h4.128l1.7-4.917h8.6l1.714,4.917H28.4Z" transform="translate(4.668)" fill="#6f6e6e"/>
  <path id="Tracciato_914" data-name="Tracciato 914" d="M45.375,16.265a2.017,2.017,0,0,1-1.922-2.1,2.015,2.015,0,0,1,1.922-2.1H55.658c0,6.655-4.931,12.053-11.018,12.053s-11.016-5.4-11.016-12.057S38.556,0,44.64,0A11.1,11.1,0,0,1,54.964,7.847H50.688a6.812,6.812,0,0,0-9.9-2.4,8.289,8.289,0,0,0-2.2,10.828,6.815,6.815,0,0,0,9.9,2.4,7.513,7.513,0,0,0,2.2-2.4Z" transform="translate(19.305 0)" fill="#6f6e6e"/>
  <path id="Tracciato_915" data-name="Tracciato 915" d="M38.714,21.473v.118a2.41,2.41,0,0,1-2.3,2.514,2.31,2.31,0,0,1-1.839-1L25.445,7.944V23.68H21.6V2.612A2.5,2.5,0,0,1,23.994,0a2.331,2.331,0,0,1,1.982,1.159l8.9,14.813V.335h3.846Z" transform="translate(12.401 0)" fill="#6f6e6e"/>
  <path id="Tracciato_916" data-name="Tracciato 916" d="M6.985,14.431H3.848V4.382H6.985a4.822,4.822,0,0,1,4.592,5.024A4.824,4.824,0,0,1,6.985,14.431Zm0-14.239H0v23.35H3.848V18.63H6.985c4.653,0,8.425-4.129,8.425-9.22S11.638.192,6.985.192Z" transform="translate(0 0.139)" fill="#6f6e6e"/>
  <path id="Tracciato_917" data-name="Tracciato 917" d="M59.4,14.568H53.67l2.865-8.314ZM59.213,2.035A2.769,2.769,0,0,0,55.571.194a2.959,2.959,0,0,0-1.665,1.787l-7.486,21.7h4.126l1.7-4.917h8.629l1.69,4.917H66.7Z" transform="translate(26.652)" fill="#6f6e6e"/>
  <path id="Tracciato_918" data-name="Tracciato 918" d="M63.955.192H60.1V23.538h3.85Z" transform="translate(34.509 0.139)" fill="#6f6e6e"/>
  <path id="Tracciato_919" data-name="Tracciato 919" d="M76.36,14.568H70.628L73.5,6.254Zm-.2-12.534A2.768,2.768,0,0,0,72.514.194a2.957,2.957,0,0,0-1.663,1.787l-7.476,21.7h4.109l1.695-4.917h8.629L79.5,23.684h4.109Z" transform="translate(36.387)" fill="#6f6e6e"/>
</svg>
