<svg xmlns="http://www.w3.org/2000/svg" width="120" height="20.601" viewBox="0 0 120 20.601">
  <path id="Tracciato_921" data-name="Tracciato 921" d="M95.966,103.191c-3.294,0-4.227-3.012-4.227-6.132h2.948c0,1.075.1,3.066,1.426,3.066.984,0,1.475-.968,1.475-1.936,0-3.5-6-4.41-6-10.165,0-2.9,1.426-5.433,4.277-5.433,3.245,0,4.13,3.012,4.179,6.078H97.1c0-.753.147-3.012-1.328-3.012-.884,0-1.228.968-1.228,1.775,0,3.335,6,4.572,6,10.274,0,3.065-1.622,5.486-4.572,5.486Zm-12.486-.377V82.967h7.472v3.066H86.772v5.056h3.049v3.227H86.772v5.432H91.1v3.066H83.48Zm-1.77,0H80.332l-.491-1.345a3.214,3.214,0,0,1-2.606,1.721c-4.571,0-4.72-6.562-4.72-10.165,0-3.389.492-10.435,4.72-10.435,4.13,0,4.326,3.927,4.326,7.477h-2.95l.049-1.237c0-.861-.148-3.174-1.278-3.174-1.574,0-1.426,6.024-1.426,7.423,0,2.905-.148,7.046,1.572,7.046,1.426,0,1.377-2.635,1.377-3.711H77.679v-2.85H81.71Zm-15.928,0H62.34V82.967h2.9c5.9,0,6.1,4.84,6.1,9.9C71.336,97.489,71.336,102.814,65.782,102.814ZM60.472,82.967v19.847H57.129V82.967Zm-8.161,19.847-1.572-8.552h-.787v8.552H46.659V82.967H50.4c3.441,0,5.211,1.775,5.211,5.648,0,1.775-.442,3.873-1.917,4.84l1.917,9.359ZM41.251,86.032v5.325h3v3.174h-3v8.283H37.957V82.967h7.374v3.066h-4.08Zm-11.9,16.782V82.967h3.294V99.749h4.228v3.066Zm-9,0V82.967h7.522v3.066H23.651v5.056h3.1v3.227h-3.1v5.432h4.375v3.066Zm-5.8.377c-3.293,0-4.227-3.012-4.227-6.132h2.95c0,.861.1,3.066,1.426,3.066.983,0,1.475-.968,1.475-1.936,0-3.5-6-4.41-6-10.165,0-2.9,1.426-5.433,4.277-5.433,3.245,0,4.13,3.012,4.179,6.078h-2.9c0-.861-.1-3.012-1.377-3.012-.885,0-1.229.968-1.229,1.775,0,3.335,6,4.572,6,10.274,0,3.065-1.623,5.486-4.573,5.486Zm51.078-3.442c2.606,0,2.212-3.011,2.212-6.508,0-3.066.688-7.208-2.212-7.208ZM50.492,85.871h-.541v5.54h.688c1.327,0,1.671-1.614,1.671-2.743C52.311,87.216,52.017,85.871,50.492,85.871ZM107.322,87c0-.861-.245-1.345-.785-1.345-.492,0-.69.484-.69,1.13a9.334,9.334,0,0,0,.541,2.527A3.821,3.821,0,0,0,107.322,87Zm-.785-1.775c.884,0,1.179.914,1.179,1.775a5.714,5.714,0,0,1-1.377,3.174,10.106,10.106,0,0,1-.886-3.389C105.454,86.087,105.651,85.226,106.537,85.226Zm5.751,17.589a4.118,4.118,0,0,1-3.342-1.452,4.431,4.431,0,0,1-3.442,1.829c-2.8,0-4.08-2.8-4.08-5a9.9,9.9,0,0,1,2.654-6.239,11.634,11.634,0,0,1-1.377-5.164c0-2.528,1.574-4.2,3.835-4.2,2.359,0,3.637,2.1,3.637,4.142,0,2.528-1.131,3.55-2.458,5.271a21.462,21.462,0,0,0,1.279,2.9,19.4,19.4,0,0,0,.491-2.851l2.556.592a21.505,21.505,0,0,1-1.377,5.593,2.62,2.62,0,0,0,1.868,1.345v3.227h-.245Zm-.2-2.905a2.891,2.891,0,0,1-1.868-1.613,19.129,19.129,0,0,0,1.377-5.325l-1.77-.377a18.626,18.626,0,0,1-.737,3.389,36.631,36.631,0,0,1-1.867-4.034c1.327-1.721,2.507-2.743,2.507-5.217,0-1.883-1.131-3.711-3.2-3.711a3.44,3.44,0,0,0-3.442,3.765,12.855,12.855,0,0,0,1.426,5.271,9.732,9.732,0,0,0-2.7,6.132c0,2.1,1.179,4.572,3.686,4.572a4.08,4.08,0,0,0,3.393-2.1,3.752,3.752,0,0,0,3.2,1.667v-2.42h0Zm-7.374-2.8c0,1.183.491,2.635,1.572,2.635.541,0,.787-.43.983-.807l-1.867-3.818A3.008,3.008,0,0,0,104.718,97.113ZM107.765,99a1.956,1.956,0,0,1-1.524,1.183c-1.278,0-1.917-1.936-1.917-3.066a3.8,3.8,0,0,1,1.129-2.743L107.765,99Zm10.914-8.875c0-.592.1-4.088-.984-4.088-1.327,0-1.179,6.024-1.179,6.67,0,6.024.491,7.046,1.129,7.046,1.328,0,1.23-3.6,1.23-4.518h3.1v.215c.048,3.174-.3,7.746-4.375,7.746-4.769,0-4.819-7.154-4.819-10.489,0-3.12.442-10.112,4.819-10.112,4.08,0,4.375,4.357,4.326,7.53v.269h-3.245Zm2.9-.215c-.049-3.227-.442-6.884-3.982-6.884-3.933,0-4.375,6.347-4.375,9.681,0,3.6.1,10.058,4.375,10.058,3.54,0,3.982-3.873,4.03-7.1h-2.359c0,1.183,0,4.518-1.623,4.518-1.129,0-1.523-1.829-1.523-7.477,0-1.4-.148-7.1,1.572-7.1,1.475,0,1.378,3.389,1.378,4.3h2.507Zm5.6,8.929c-1.181,0-1.671-1.13-2.556-1.13a1.641,1.641,0,0,0-1.181.753l-.491-.807a3.441,3.441,0,0,1,2.752-2.152c1.131,0,1.623,1.13,2.507,1.13a1.644,1.644,0,0,0,1.181-.7l.491.807c-.638,1.076-1.572,2.1-2.7,2.1Zm2.163-2.313a1.54,1.54,0,0,1-1.131.538c-.983,0-1.475-1.075-2.507-1.075a2.959,2.959,0,0,0-2.31,1.667l.1.161a1.54,1.54,0,0,1,1.131-.538c.983,0,1.475,1.13,2.556,1.13a3.008,3.008,0,0,0,2.261-1.667Zm-2.851-13.877c3.146,0,3.687,3.442,3.687,6.132s-.541,6.132-3.687,6.132c-3.1,0-3.687-3.442-3.687-6.132S123.4,82.644,126.495,82.644Zm0,11.78c2.851,0,3.294-3.227,3.294-5.649s-.442-5.7-3.294-5.7-3.245,3.281-3.245,5.7S123.644,94.424,126.495,94.424Zm0-1.991c.295,0,.589-.376.589-3.658,0-1.13,0-3.658-.589-3.658-.541,0-.591,1.237-.591,3.658C125.9,91.842,126.2,92.433,126.495,92.433Zm.983-3.658c0,3.55-.344,4.088-.983,4.088-.541,0-.983-.538-.983-4.088a16.134,16.134,0,0,1,.2-3.281c.148-.753.492-.861.787-.861C127.183,84.634,127.478,85.548,127.478,88.776Z" transform="translate(-10.182 -82.59)" fill="#6f6e6e" fill-rule="evenodd"/>
</svg>
