<svg xmlns="http://www.w3.org/2000/svg" width="120" height="26.519" viewBox="0 0 120 26.519">
  <g id="layer1" transform="translate(151.161 -240.221)">
    <g id="g212" transform="translate(-151.161 240.221)">
      <path id="path196" d="M38.582,46.913c-1.363,0-1.938-.847-1.938-2.538V36.7H41.2V34.547H36.645v-4.5H33.51l-1.091,4.5H30.038V36.7h2.211v8.571c0,2.7,1.283,4.5,4.908,4.5a6.654,6.654,0,0,0,4.771-2.238l-.737-1.555a3.633,3.633,0,0,1-2.608.934Z" transform="translate(-30.038 -30.048)" fill="#6f6e6e"/>
      <path id="path198" d="M191.426,46.913c-1.363,0-1.938-.847-1.938-2.538V36.7h4.559V34.547h-4.559v-4.5h-3.135l-1.091,4.5h-2.379V36.7h2.211v8.571c0,2.7,1.283,4.5,4.908,4.5a6.654,6.654,0,0,0,4.771-2.238l-.738-1.555a3.636,3.636,0,0,1-2.609.934Z" transform="translate(-104.131 -30.048)" fill="#6f6e6e"/>
      <path id="path200" d="M245.38,35.231a2.568,2.568,0,0,0-2.675,2.454,1.9,1.9,0,0,0,3.167,1.475c.136,2.317-1.146,5.726-4.45,9.308l-2.129-11.41H233.61v1.664c1.283.245,1.555.491,1.966,2.429l2.157,10.318c-3.249,2.211-4.886,3.876-4.886,5.589a1.8,1.8,0,0,0,1.772,2.02c1.8,0,3.442-1.909,4.7-6.387,6.359-5.1,9.035-9.8,9.035-13.785C248.349,36.651,247.23,35.231,245.38,35.231Z" transform="translate(-128.352 -32.561)" fill="#6f6e6e"/>
      <path id="path202" d="M68.691,49.6V43.488c0-3.085-2.1-5.24-6.114-5.24-3.467,0-6.2,1.256-6.2,3.6a1.993,1.993,0,0,0,3.986.055,1.744,1.744,0,0,0-.573-1.392,4.938,4.938,0,0,1,1.583-.245c2.045,0,2.947,1.119,2.947,3v1.61c-6.223-.409-8.845,1.474-8.845,4.586,0,2.454,1.8,4.259,4.831,4.259a5.458,5.458,0,0,0,4.422-2.045l.792,1.772h4.992V51.787c-1.363-.191-1.827-.6-1.827-2.183Zm-4.362-.382a2.063,2.063,0,0,1-2.211,1.857,1.916,1.916,0,0,1-2.129-2.045c0-1.692.928-2.647,4.34-2.429Z" transform="translate(-42.371 -34.023)" fill="#6f6e6e"/>
      <path id="path204" d="M96.806,38.364A5.338,5.338,0,0,0,91.9,41.039l.109-2.454H86.052v1.664c1.363.191,1.829.628,1.829,2.211V58.15l-1.993.463V60.2h8.817V58.613l-2.4-.491V52.881a6.922,6.922,0,0,0,3.467.818c4.286,0,7.479-3.194,7.479-8.08C103.253,41.007,100.573,38.364,96.806,38.364ZM94.787,51.38a3.859,3.859,0,0,1-2.484-.847v-5.24c0-2.62,1.174-4.2,3.194-4.2,1.939,0,3.112,1.746,3.112,4.695C98.608,49.414,97.107,51.38,94.787,51.38Z" transform="translate(-57.112 -34.08)" fill="#6f6e6e"/>
      <path id="path206" d="M218.266,38.25c-1.61,0-3.135,1.2-3.93,3.3l.109-3.03h-5.871v1.664c1.363.191,1.829.628,1.829,2.211v9.008l-1.993.463v1.584h8.817V51.872l-2.4-.491V45.047a4.075,4.075,0,0,1,1.8-3.767,1.932,1.932,0,0,0,1.909,1.5,2.134,2.134,0,0,0,2.129-2.211,2.253,2.253,0,0,0-2.4-2.319Z" transform="translate(-116.506 -34.024)" fill="#6f6e6e"/>
      <path id="path208" d="M163.362,43.985c-2.293-.463-3.544-.573-3.544-1.909,0-.983.792-1.746,2.266-1.746a3.222,3.222,0,0,1,3.494,2.429h1.528v-3.63a14.341,14.341,0,0,0-4.908-.874c-4.012,0-6.3,1.829-6.3,4.94,0,3.544,2.647,4.15,4.995,4.613,2.293.463,3.544.573,3.544,1.909,0,1.2-1.037,1.938-2.756,1.938a3.735,3.735,0,0,1-4.066-2.976h-1.5v3.739a10.932,10.932,0,0,0,5.453,1.31c4.259,0,6.8-1.884,6.8-5.131C168.361,45.05,165.714,44.446,163.362,43.985Z" transform="translate(-91.048 -34.027)" fill="#6f6e6e"/>
      <path id="path210" d="M130.8,38.25c-4.8,0-7.725,3.249-7.725,7.889,0,4.422,2.92,7.588,7.725,7.588a7.324,7.324,0,0,0,6.5-3.408l-1.065-1.01a5.511,5.511,0,0,1-3.848,1.719c-2.726,0-4.4-1.746-4.668-4.908h9.69C138.063,42.618,136.317,38.25,130.8,38.25Zm-3.115,5.95c.218-2.7,1.474-3.817,2.92-3.817,1.528,0,2.511,1.227,2.538,3.817Z" transform="translate(-75.14 -34.024)" fill="#6f6e6e"/>
    </g>
  </g>
</svg>
