<svg xmlns="http://www.w3.org/2000/svg" width="120" height="23.2" viewBox="0 0 120 23.2">
  <g id="tory-burch_logo" transform="translate(-20.5 -263.7)">
    <g id="Raggruppa_796" data-name="Raggruppa 796" transform="translate(20.5 270.98)">
      <path id="Tracciato_924" data-name="Tracciato 924" d="M20.5,301.5v1.46h3.04v6.76H25.6v-6.76h3.12V301.5Z" transform="translate(-20.5 -301.22)" fill="#6f6e6e"/>
      <path id="Tracciato_925" data-name="Tracciato 925" d="M71.52,307.08a3.339,3.339,0,0,1-1.2.2,3.151,3.151,0,0,1-1.98-.6c-.2-.2-.34-.4-.4-.46a3.477,3.477,0,0,1-.34-.54,2.475,2.475,0,0,1-.26-1.2A2.814,2.814,0,0,1,69,301.82a2.643,2.643,0,0,1,1.2-.26,2.857,2.857,0,0,1,2.32.92,3.019,3.019,0,0,1,.72,1.98,2.639,2.639,0,0,1-1.72,2.62m2.98-5.38a2.076,2.076,0,0,0-.66-.6,3.215,3.215,0,0,0-.66-.4,7.565,7.565,0,0,0-3.18-.6,5.976,5.976,0,0,0-3.18,1,4,4,0,0,0-1.52,3.32,4.588,4.588,0,0,0,.72,2.52,4.9,4.9,0,0,0,4.3,1.86,5.683,5.683,0,0,0,3.24-.86,4.1,4.1,0,0,0,1.66-2.58c.06-.46.14-.86.14-1a3.911,3.911,0,0,0-.86-2.66" transform="translate(-56.34 -300.1)" fill="#6f6e6e"/>
      <path id="Tracciato_926" data-name="Tracciato 926" d="M129.68,304.32a2.418,2.418,0,0,1-.54.06H125.9V302.4h3.18a1.352,1.352,0,0,1,1.12.4.988.988,0,0,1,.2.6.876.876,0,0,1-.72.92m.66,1.32a2.337,2.337,0,0,0,1.92-1.26,2.025,2.025,0,0,0,.26-1.06,2.358,2.358,0,0,0-1.66-2.32,4.564,4.564,0,0,0-1.32-.2H123.9v8.22h2.06v-3.24h2.38l2.18,3.24h2.4Z" transform="translate(-103.22 -300.66)" fill="#6f6e6e"/>
      <path id="Tracciato_927" data-name="Tracciato 927" d="M178.6,301.1l-2.38,3.52-2.4-3.52H171.3l3.86,5.12v3.04h2.04v-3.04l3.92-5.12Z" transform="translate(-141.14 -300.9)" fill="#6f6e6e"/>
    </g>
    <g id="Raggruppa_797" data-name="Raggruppa 797" transform="translate(89.16 270.96)">
      <path id="Tracciato_928" data-name="Tracciato 928" d="M365.88,307.8h3.04a2.923,2.923,0,0,0,.72-.06c.34-.14.6-.34.6-1a1.313,1.313,0,0,0-.26-.72,1.54,1.54,0,0,0-.86-.34H365.8l.08,2.12Zm0-3.44h2.92c.4,0,.8,0,1-.4a1.077,1.077,0,0,0,.14-.54,1.128,1.128,0,0,0-.06-.4c-.2-.54-.8-.46-.92-.46h-3.04v1.8Zm3.24-3.26a4.377,4.377,0,0,1,1.86.34,1.816,1.816,0,0,1,.92,1.72,1.694,1.694,0,0,1-1,1.6c-.14.06-.2.14-.4.14a3.352,3.352,0,0,1,.72.26,1.985,1.985,0,0,1,1.06,1.86,2.3,2.3,0,0,1-.86,1.86,3.187,3.187,0,0,1-2.06.46H363.8v-8.16l5.32-.08Z" transform="translate(-363.8 -300.88)" fill="#6f6e6e"/>
      <path id="Tracciato_929" data-name="Tracciato 929" d="M417,301.1v4.84a1.919,1.919,0,0,0,.66,1.52,3.36,3.36,0,0,0,1.8.46,3.033,3.033,0,0,0,1.52-.34,1.931,1.931,0,0,0,.66-.66c.14-.2.14-.34.14-.72v-5.1h2.06v4.78a3.577,3.577,0,0,1-.4,2.06,4.85,4.85,0,0,1-.46.6,5.4,5.4,0,0,1-3.44,1.06,5.7,5.7,0,0,1-1.6-.2,3.193,3.193,0,0,1-2.58-1.86,3.43,3.43,0,0,1-.26-1.66V301.1Z" transform="translate(-404.84 -300.88)" fill="#6f6e6e"/>
      <path id="Tracciato_930" data-name="Tracciato 930" d="M470.2,304.56h3.24a2.419,2.419,0,0,0,.54-.06.876.876,0,0,0,.72-.92.8.8,0,0,0-.2-.6,1.192,1.192,0,0,0-1.12-.4H470.2v1.98Zm3.58-3.46a2.9,2.9,0,0,1,1.32.2,2.308,2.308,0,0,1,1.66,2.32,1.919,1.919,0,0,1-.26,1.06c-.34.86-1.06,1.06-1.92,1.2l2.46,3.38h-2.38l-2.18-3.32H470.1v3.24H468V301.1Z" transform="translate(-447.16 -300.88)" fill="#6f6e6e"/>
      <path id="Tracciato_931" data-name="Tracciato 931" d="M525.9,302.82a2.593,2.593,0,0,0-.86-.86,3.207,3.207,0,0,0-2.92-.2,2.747,2.747,0,0,0-1.66,2.58A2.839,2.839,0,0,0,521,306a1.675,1.675,0,0,0,.54.54,2.959,2.959,0,0,0,1.92.66,2.655,2.655,0,0,0,2.18-.86,3.172,3.172,0,0,0,.4-.66l2.18-.06a3.156,3.156,0,0,1-.34.8,3.536,3.536,0,0,1-.86,1.06,5.221,5.221,0,0,1-3.78,1.2,5.288,5.288,0,0,1-3.32-1,4.068,4.068,0,0,1-1.52-3.38,4.185,4.185,0,0,1,.66-2.38,5.41,5.41,0,0,1,.54-.6,7.059,7.059,0,0,1,.6-.46,6.146,6.146,0,0,1,3.24-.86,6.253,6.253,0,0,1,3.32.92,3.1,3.1,0,0,1,1.2,1.32,1.692,1.692,0,0,0,.2.34Z" transform="translate(-487.48 -300)" fill="#6f6e6e"/>
      <path id="Tracciato_932" data-name="Tracciato 932" d="M582.44,301.1v3.2h-4.98v-3.2H575.4v8.16h2.06v-3.5h4.98v3.5h1.98V301.1Z" transform="translate(-533.08 -300.88)" fill="#6f6e6e"/>
    </g>
    <path id="Tracciato_933" data-name="Tracciato 933" d="M231.3,275.3a11.6,11.6,0,1,0,11.6-11.6,11.621,11.621,0,0,0-11.6,11.6m1.54,0a10.02,10.02,0,1,1,10.02,10.02,10.051,10.051,0,0,1-10.02-10.02" transform="translate(-168.64)" fill="#6f6e6e"/>
    <path id="Tracciato_934" data-name="Tracciato 934" d="M259.94,323.4h2.86a1.525,1.525,0,0,1,1.66.92,1.371,1.371,0,0,1,1.46-.92h.34v3.72h-3.64a1.5,1.5,0,0,0,.54-1.12,1.434,1.434,0,0,0-1.52-1.4,1.48,1.48,0,0,0-1.66,1.4,1.189,1.189,0,0,0,.86,1.12,1.4,1.4,0,0,0-.86,1.26c0,.92.66,1.4,1.92,1.4a1.661,1.661,0,0,0,.54-.06v1.26h-2.38a1.525,1.525,0,0,1-1.66-.92,1.525,1.525,0,0,1-1.66.92h-2.38v-1.26c.2,0,.34.06.54.06,1.26,0,1.92-.46,1.92-1.4a1.365,1.365,0,0,0-.86-1.26,1.182,1.182,0,0,0,.86-1.12,1.427,1.427,0,0,0-1.6-1.4,1.4,1.4,0,0,0-1.52,1.4,1.384,1.384,0,0,0,.54,1.12H250.6V323.4h.34a1.33,1.33,0,0,1,1.46.92,1.525,1.525,0,0,1,1.66-.92h2.86c.8,0,1.32.14,1.66.92.04-.72.5-.92,1.36-.92" transform="translate(-184.08 -47.76)" fill="#6f6e6e"/>
    <path id="Tracciato_935" data-name="Tracciato 935" d="M255.42,289.14h-2.86a1.525,1.525,0,0,1-1.66-.92,1.371,1.371,0,0,1-1.46.92h-.34v-3.72h3.64a1.5,1.5,0,0,0-.54,1.12,1.434,1.434,0,0,0,1.52,1.4,1.481,1.481,0,0,0,1.66-1.4,1.189,1.189,0,0,0-.86-1.12,1.4,1.4,0,0,0,.86-1.26c0-.92-.66-1.4-1.92-1.4a1.662,1.662,0,0,0-.54.06V281.5h2.38a1.525,1.525,0,0,1,1.66.92,1.525,1.525,0,0,1,1.66-.92H261v1.26c-.2,0-.34-.06-.54-.06-1.26,0-1.92.46-1.92,1.4a1.365,1.365,0,0,0,.86,1.26,1.182,1.182,0,0,0-.86,1.12,1.427,1.427,0,0,0,1.6,1.4,1.4,1.4,0,0,0,1.52-1.4,1.384,1.384,0,0,0-.54-1.12h3.64v3.72h-.34a1.33,1.33,0,0,1-1.46-.92,1.525,1.525,0,0,1-1.66.92h-2.86c-.8,0-1.32-.14-1.66-.92-.02.84-.5.98-1.36.98" transform="translate(-182.88 -14.24)" fill="#6f6e6e"/>
  </g>
</svg>
