<svg xmlns="http://www.w3.org/2000/svg" width="64.089" height="16.655" viewBox="0 0 64.089 16.655">
  <path id="Tracciato_969" data-name="Tracciato 969" d="M21.677,88.724a6.438,6.438,0,0,1-4.83-2.485A9.588,9.588,0,0,1,16.7,74.8a6.5,6.5,0,0,1,5.045-2.688,6.4,6.4,0,0,1,4.783,2.479,9.576,9.576,0,0,1,.157,11.436,6.473,6.473,0,0,1-5,2.694ZM2.834,72.458H8.482v.162H7.1l4.214,11.54,3.558-11.54h-1.4v-.162h3.048v.162H15.17L10.154,88.572,4.32,72.62H2.834Zm38.029-.279v5.544h-.128a10.018,10.018,0,0,0-1.161-3.117c-.7-1.126-1.805-2.391-3.251-2.391-3.32,0-3.622,5.95-3.622,8.22a16.711,16.711,0,0,0,.9,6.031,2.6,2.6,0,0,0,2.653,1.991,3.415,3.415,0,0,0,2.862-1.515,1.505,1.505,0,0,0,.163-.812V81.845H37.828v-.168h5.312v.168H41.9v6.409h-.11a1.652,1.652,0,0,0-1.44-.865,2.746,2.746,0,0,0-1.306.383l-.36.2a6,6,0,0,1-2.491.621c-4.121,0-6.316-4.394-6.316-8.039a9.084,9.084,0,0,1,3.176-7.181,5.648,5.648,0,0,1,3.39-1.3,3.91,3.91,0,0,1,1.422.331l.331.128a3.55,3.55,0,0,0,1.2.273,2.407,2.407,0,0,0,1.347-.621h.127Zm1.585.279h5.666v.162h-1.5v12.3c0,1.927,1.985,3.1,3.721,3.1a3.265,3.265,0,0,0,3.442-3.21V72.62H52v-.162H66.62v5.706h-.11a7.408,7.408,0,0,0-1.5-4.238c-1.05-1.19-2.479-1.306-3.947-1.306H59.481v7.338a9.33,9.33,0,0,0,.987.058c1.991,0,2.508-1.37,2.595-3.065h.145v6.438h-.145c-.25-1.538-.929-3.187-2.734-3.187-.284,0-.563.017-.847.041v7.848h2.374A4.83,4.83,0,0,0,65.181,86.7a5.057,5.057,0,0,0,1.44-2.711,14.647,14.647,0,0,0,.174-1.742h.128v6.008H55.492v-.163h1.329V72.62h-2.81V84.858c0,2.53-2.4,3.651-4.655,3.651-2.548,0-5.359-1.236-5.359-4.151V72.62H42.449v-.162h0Z" transform="translate(-2.834 -72.069)" fill-rule="evenodd"/>
</svg>
